<svg xmlns="http://www.w3.org/2000/svg" width="250" height="40" viewBox="0 0 250 40"><rect width="100%" height="100%" fill="#DDDDDD"/><path fill="#999999" d="M91.31 24.93h3.71q.4 0 .64.22.23.23.23.6v1.48h-9.92v-.82q0-.25.11-.52.1-.28.33-.5l4.39-4.4q.55-.56.99-1.07.43-.51.72-1.01t.45-1.02q.15-.51.15-1.08 0-.52-.15-.92-.15-.39-.42-.66-.28-.27-.66-.41-.39-.13-.87-.13-.44 0-.81.12-.38.13-.67.36-.29.22-.49.52t-.3.66q-.17.46-.44.61t-.78.07l-1.3-.23q.15-1.04.58-1.83.43-.78 1.08-1.3.64-.53 1.48-.8.83-.26 1.79-.26 1 0 1.83.29.83.3 1.42.84t.92 1.3.33 1.69q0 .8-.23 1.48-.24.68-.63 1.3-.4.62-.93 1.2t-1.11 1.18l-3.26 3.33q.47-.14.94-.22.46-.07.88-.07m10.07-9.92-.51 3.01q.48-.1.92-.15.44-.04.85-.04 1.14 0 2.01.34t1.46.94.89 1.41q.3.8.3 1.73 0 1.15-.4 2.1-.41.95-1.13 1.62-.72.68-1.7 1.05-.99.37-2.15.37-.68 0-1.29-.14t-1.14-.37q-.54-.24-.99-.55-.46-.3-.82-.64l.76-1.05q.24-.34.63-.34.25 0 .51.16t.6.35q.33.19.79.35.45.16 1.09.16.68 0 1.2-.22t.87-.62q.34-.39.52-.94.17-.54.17-1.18 0-1.18-.68-1.84-.69-.67-2.03-.67-1.03 0-2.11.38l-1.54-.44 1.2-7.02h7.14v1.05q0 .53-.33.86t-1.12.33zM119.51 20q0 1.89-.4 3.28-.41 1.4-1.12 2.31-.72.91-1.69 1.35-.98.45-2.11.45t-2.09-.45q-.97-.44-1.68-1.35t-1.11-2.31q-.4-1.39-.4-3.28 0-1.9.4-3.29t1.11-2.3 1.68-1.36q.96-.44 2.09-.44t2.11.44q.97.45 1.69 1.36.71.91 1.12 2.3.4 1.39.4 3.29m-2.55 0q0-1.57-.23-2.6t-.61-1.64q-.39-.61-.89-.86-.5-.24-1.04-.24-.53 0-1.02.24-.5.25-.88.86t-.6 1.64q-.23 1.03-.23 2.6t.23 2.6q.22 1.03.6 1.64t.88.85q.49.25 1.02.25.54 0 1.04-.25.5-.24.89-.85.38-.61.61-1.64t.23-2.6m18.43 3.92-1.31 1.29-3.39-3.39-3.42 3.41-1.31-1.29 3.42-3.43-3.26-3.26 1.3-1.3 3.26 3.26 3.24-3.24 1.32 1.3-3.25 3.25zm8.66-2.14h4.4v-4.73q0-.67.09-1.48zm6.55 0h1.82v1.43q0 .2-.13.34-.13.15-.37.15h-1.32v3.53h-2.15V23.7h-6.1q-.25 0-.44-.16-.19-.15-.24-.38l-.26-1.25 6.85-9.15h2.34zM164.03 20q0 1.89-.4 3.28-.41 1.4-1.12 2.31-.72.91-1.69 1.35-.98.45-2.11.45t-2.09-.45q-.97-.44-1.68-1.35t-1.11-2.31q-.4-1.39-.4-3.28 0-1.9.4-3.29t1.11-2.3 1.68-1.36q.96-.44 2.09-.44t2.11.44q.97.45 1.69 1.36.71.91 1.12 2.3.4 1.39.4 3.29m-2.55 0q0-1.57-.23-2.6t-.61-1.64q-.39-.61-.89-.86-.5-.24-1.04-.24-.53 0-1.02.24-.5.25-.88.86t-.6 1.64q-.23 1.03-.23 2.6t.23 2.6q.22 1.03.6 1.64t.88.85q.49.25 1.02.25.54 0 1.04-.25.5-.24.89-.85.38-.61.61-1.64t.23-2.6"/></svg>